<mxfile host="app.diagrams.net" modified="2022-02-02T18:44:32.224Z" agent="5.0 (Macintosh; Intel Mac OS X 10_15_7) AppleWebKit/605.1.15 (KHTML, like Gecko) Version/15.2 Safari/605.1.15" etag="mAM6o_6dqjX7cwTpr97x" version="16.5.2" type="github">
  <diagram id="prtHgNgQTEPvFCAcTncT" name="Page-1">
    <mxGraphModel dx="788" dy="1626" grid="1" gridSize="10" guides="1" tooltips="1" connect="1" arrows="1" fold="1" page="1" pageScale="1" pageWidth="827" pageHeight="1169" math="0" shadow="0">
      <root>
        <mxCell id="0" />
        <mxCell id="1" parent="0" />
        <mxCell id="dNxyNK7c78bLwvsdeMH5-19" value="CLC" style="swimlane;html=1;childLayout=stackLayout;resizeParent=1;resizeParentMax=0;horizontal=0;startSize=20;horizontalStack=0;" parent="1" vertex="1">
          <mxGeometry x="160" y="50" width="590" height="550" as="geometry" />
        </mxCell>
        <mxCell id="dNxyNK7c78bLwvsdeMH5-27" value="" style="edgeStyle=orthogonalEdgeStyle;rounded=0;orthogonalLoop=1;jettySize=auto;html=1;dashed=1;endArrow=none;endFill=0;" parent="dNxyNK7c78bLwvsdeMH5-19" target="dNxyNK7c78bLwvsdeMH5-26" edge="1">
          <mxGeometry relative="1" as="geometry">
            <mxPoint x="350" y="70" as="sourcePoint" />
          </mxGeometry>
        </mxCell>
        <mxCell id="dNxyNK7c78bLwvsdeMH5-20" value="Frontend&lt;br&gt;" style="swimlane;html=1;startSize=20;horizontal=0;fillColor=#ffe6cc;strokeColor=#d79b00;" parent="dNxyNK7c78bLwvsdeMH5-19" vertex="1">
          <mxGeometry x="20" width="570" height="120" as="geometry" />
        </mxCell>
        <mxCell id="dNxyNK7c78bLwvsdeMH5-25" value="" style="edgeStyle=orthogonalEdgeStyle;rounded=0;orthogonalLoop=1;jettySize=auto;html=1;" parent="dNxyNK7c78bLwvsdeMH5-20" source="dNxyNK7c78bLwvsdeMH5-23" edge="1">
          <mxGeometry relative="1" as="geometry">
            <mxPoint x="400" y="70" as="targetPoint" />
          </mxGeometry>
        </mxCell>
        <mxCell id="oXbtBevVn89mo1l6qwvO-2" value="" style="rounded=0;whiteSpace=wrap;html=1;fillColor=#fff2cc;strokeColor=#d6b656;" vertex="1" parent="dNxyNK7c78bLwvsdeMH5-20">
          <mxGeometry x="102.5" y="30" width="70" height="60" as="geometry" />
        </mxCell>
        <mxCell id="oXbtBevVn89mo1l6qwvO-7" value="" style="rounded=0;whiteSpace=wrap;html=1;fillColor=#fff2cc;strokeColor=#d6b656;" vertex="1" parent="dNxyNK7c78bLwvsdeMH5-20">
          <mxGeometry x="412.5" y="20" width="70" height="60" as="geometry" />
        </mxCell>
        <mxCell id="oXbtBevVn89mo1l6qwvO-3" value="" style="endArrow=none;dashed=1;html=1;dashPattern=1 3;strokeWidth=2;rounded=0;" edge="1" parent="dNxyNK7c78bLwvsdeMH5-20">
          <mxGeometry width="50" height="50" relative="1" as="geometry">
            <mxPoint x="320" y="580" as="sourcePoint" />
            <mxPoint x="320" y="-30" as="targetPoint" />
          </mxGeometry>
        </mxCell>
        <mxCell id="oXbtBevVn89mo1l6qwvO-25" value="User Login" style="text;html=1;strokeColor=none;fillColor=none;align=center;verticalAlign=middle;whiteSpace=wrap;rounded=0;fontStyle=1" vertex="1" parent="dNxyNK7c78bLwvsdeMH5-20">
          <mxGeometry x="108" y="45" width="60" height="30" as="geometry" />
        </mxCell>
        <mxCell id="oXbtBevVn89mo1l6qwvO-38" value="User Interface" style="text;html=1;strokeColor=none;fillColor=none;align=center;verticalAlign=middle;whiteSpace=wrap;rounded=0;fontStyle=1" vertex="1" parent="dNxyNK7c78bLwvsdeMH5-20">
          <mxGeometry x="417.5" y="35" width="60" height="30" as="geometry" />
        </mxCell>
        <mxCell id="dNxyNK7c78bLwvsdeMH5-21" value="Auth-Server" style="swimlane;html=1;startSize=20;horizontal=0;fillColor=#f8cecc;strokeColor=#b85450;" parent="dNxyNK7c78bLwvsdeMH5-19" vertex="1">
          <mxGeometry x="20" y="120" width="570" height="170" as="geometry" />
        </mxCell>
        <mxCell id="oXbtBevVn89mo1l6qwvO-4" value="Generate AuthorizationToken" style="rounded=0;whiteSpace=wrap;html=1;fontStyle=1;fillColor=#f8cecc;strokeColor=#b85450;" vertex="1" parent="dNxyNK7c78bLwvsdeMH5-21">
          <mxGeometry x="190" y="110" width="115" height="40" as="geometry" />
        </mxCell>
        <mxCell id="oXbtBevVn89mo1l6qwvO-21" style="edgeStyle=orthogonalEdgeStyle;rounded=0;orthogonalLoop=1;jettySize=auto;html=1;entryX=0.25;entryY=0;entryDx=0;entryDy=0;" edge="1" parent="dNxyNK7c78bLwvsdeMH5-21" source="oXbtBevVn89mo1l6qwvO-14" target="oXbtBevVn89mo1l6qwvO-4">
          <mxGeometry relative="1" as="geometry" />
        </mxCell>
        <mxCell id="oXbtBevVn89mo1l6qwvO-14" value="Is User Valid?" style="rhombus;whiteSpace=wrap;html=1;fontStyle=1;fillColor=#f8cecc;strokeColor=#b85450;" vertex="1" parent="dNxyNK7c78bLwvsdeMH5-21">
          <mxGeometry x="100" y="30" width="75" height="70" as="geometry" />
        </mxCell>
        <mxCell id="oXbtBevVn89mo1l6qwvO-24" value="Retry&amp;nbsp;" style="text;html=1;strokeColor=none;fillColor=none;align=center;verticalAlign=middle;whiteSpace=wrap;rounded=0;" vertex="1" parent="dNxyNK7c78bLwvsdeMH5-21">
          <mxGeometry x="30" y="10" width="60" height="30" as="geometry" />
        </mxCell>
        <mxCell id="oXbtBevVn89mo1l6qwvO-41" value="Invalid request" style="text;html=1;strokeColor=none;fillColor=none;align=center;verticalAlign=middle;whiteSpace=wrap;rounded=0;" vertex="1" parent="dNxyNK7c78bLwvsdeMH5-21">
          <mxGeometry x="330" y="60" width="60" height="30" as="geometry" />
        </mxCell>
        <mxCell id="oXbtBevVn89mo1l6qwvO-42" value="API success response" style="text;html=1;strokeColor=none;fillColor=none;align=center;verticalAlign=middle;whiteSpace=wrap;rounded=0;" vertex="1" parent="dNxyNK7c78bLwvsdeMH5-21">
          <mxGeometry x="480" y="60" width="60" height="30" as="geometry" />
        </mxCell>
        <mxCell id="dNxyNK7c78bLwvsdeMH5-22" value="GraphQL-Server &amp;amp; Payments-Server" style="swimlane;html=1;startSize=20;horizontal=0;fillColor=#d5e8d4;strokeColor=#82b366;" parent="dNxyNK7c78bLwvsdeMH5-19" vertex="1">
          <mxGeometry x="20" y="290" width="570" height="260" as="geometry" />
        </mxCell>
        <mxCell id="oXbtBevVn89mo1l6qwvO-8" value="API functions" style="rounded=0;whiteSpace=wrap;html=1;fontStyle=1;fillColor=#d5e8d4;strokeColor=#82b366;" vertex="1" parent="dNxyNK7c78bLwvsdeMH5-22">
          <mxGeometry x="482.5" y="140" width="70" height="60" as="geometry" />
        </mxCell>
        <mxCell id="oXbtBevVn89mo1l6qwvO-31" value="Is Token Valid?" style="rhombus;whiteSpace=wrap;html=1;fontStyle=1;fillColor=#d5e8d4;strokeColor=#82b366;" vertex="1" parent="dNxyNK7c78bLwvsdeMH5-22">
          <mxGeometry x="410" y="60" width="75" height="70" as="geometry" />
        </mxCell>
        <mxCell id="oXbtBevVn89mo1l6qwvO-33" style="edgeStyle=orthogonalEdgeStyle;rounded=0;orthogonalLoop=1;jettySize=auto;html=1;" edge="1" parent="dNxyNK7c78bLwvsdeMH5-22" source="oXbtBevVn89mo1l6qwvO-31" target="oXbtBevVn89mo1l6qwvO-8">
          <mxGeometry relative="1" as="geometry">
            <mxPoint x="530" y="80" as="targetPoint" />
            <Array as="points">
              <mxPoint x="520" y="95" />
            </Array>
          </mxGeometry>
        </mxCell>
        <mxCell id="oXbtBevVn89mo1l6qwvO-18" style="edgeStyle=orthogonalEdgeStyle;rounded=0;orthogonalLoop=1;jettySize=auto;html=1;entryX=0.5;entryY=0;entryDx=0;entryDy=0;" edge="1" parent="dNxyNK7c78bLwvsdeMH5-19" source="oXbtBevVn89mo1l6qwvO-2" target="oXbtBevVn89mo1l6qwvO-14">
          <mxGeometry relative="1" as="geometry" />
        </mxCell>
        <mxCell id="oXbtBevVn89mo1l6qwvO-23" style="edgeStyle=orthogonalEdgeStyle;rounded=0;orthogonalLoop=1;jettySize=auto;html=1;entryX=-0.007;entryY=0.386;entryDx=0;entryDy=0;entryPerimeter=0;" edge="1" parent="dNxyNK7c78bLwvsdeMH5-19" source="oXbtBevVn89mo1l6qwvO-14" target="oXbtBevVn89mo1l6qwvO-2">
          <mxGeometry relative="1" as="geometry">
            <Array as="points">
              <mxPoint x="100" y="185" />
              <mxPoint x="100" y="53" />
            </Array>
          </mxGeometry>
        </mxCell>
        <mxCell id="oXbtBevVn89mo1l6qwvO-34" style="edgeStyle=orthogonalEdgeStyle;rounded=0;orthogonalLoop=1;jettySize=auto;html=1;entryX=0;entryY=0.25;entryDx=0;entryDy=0;" edge="1" parent="dNxyNK7c78bLwvsdeMH5-19" source="oXbtBevVn89mo1l6qwvO-31" target="oXbtBevVn89mo1l6qwvO-7">
          <mxGeometry relative="1" as="geometry">
            <mxPoint x="400" y="380" as="targetPoint" />
            <Array as="points">
              <mxPoint x="410" y="385" />
              <mxPoint x="410" y="35" />
            </Array>
          </mxGeometry>
        </mxCell>
        <mxCell id="oXbtBevVn89mo1l6qwvO-37" style="edgeStyle=orthogonalEdgeStyle;rounded=0;orthogonalLoop=1;jettySize=auto;html=1;entryX=1;entryY=0.5;entryDx=0;entryDy=0;" edge="1" parent="dNxyNK7c78bLwvsdeMH5-19" source="oXbtBevVn89mo1l6qwvO-8" target="oXbtBevVn89mo1l6qwvO-7">
          <mxGeometry relative="1" as="geometry">
            <Array as="points">
              <mxPoint x="560" y="50" />
            </Array>
          </mxGeometry>
        </mxCell>
        <mxCell id="oXbtBevVn89mo1l6qwvO-39" style="edgeStyle=orthogonalEdgeStyle;rounded=0;orthogonalLoop=1;jettySize=auto;html=1;entryX=0.5;entryY=0;entryDx=0;entryDy=0;" edge="1" parent="dNxyNK7c78bLwvsdeMH5-19" source="oXbtBevVn89mo1l6qwvO-7" target="oXbtBevVn89mo1l6qwvO-31">
          <mxGeometry relative="1" as="geometry" />
        </mxCell>
        <mxCell id="oXbtBevVn89mo1l6qwvO-10" style="edgeStyle=orthogonalEdgeStyle;rounded=0;orthogonalLoop=1;jettySize=auto;html=1;" edge="1" parent="1" source="oXbtBevVn89mo1l6qwvO-1" target="oXbtBevVn89mo1l6qwvO-2">
          <mxGeometry relative="1" as="geometry" />
        </mxCell>
        <mxCell id="oXbtBevVn89mo1l6qwvO-26" style="edgeStyle=orthogonalEdgeStyle;rounded=0;orthogonalLoop=1;jettySize=auto;html=1;entryX=0.5;entryY=0;entryDx=0;entryDy=0;" edge="1" parent="1" source="oXbtBevVn89mo1l6qwvO-1" target="oXbtBevVn89mo1l6qwvO-7">
          <mxGeometry relative="1" as="geometry" />
        </mxCell>
        <mxCell id="oXbtBevVn89mo1l6qwvO-1" value="" style="shape=actor;whiteSpace=wrap;html=1;fillColor=#e1d5e7;strokeColor=#9673a6;" vertex="1" parent="1">
          <mxGeometry x="420" y="-80" width="60" height="60" as="geometry" />
        </mxCell>
        <mxCell id="oXbtBevVn89mo1l6qwvO-5" value="&lt;b&gt;Authentication&lt;/b&gt;" style="text;html=1;strokeColor=none;fillColor=none;align=center;verticalAlign=middle;whiteSpace=wrap;rounded=0;" vertex="1" parent="1">
          <mxGeometry x="220" y="20" width="60" height="30" as="geometry" />
        </mxCell>
        <mxCell id="oXbtBevVn89mo1l6qwvO-6" value="&lt;b&gt;Operations&lt;/b&gt;" style="text;html=1;strokeColor=none;fillColor=none;align=center;verticalAlign=middle;whiteSpace=wrap;rounded=0;" vertex="1" parent="1">
          <mxGeometry x="520" y="20" width="60" height="30" as="geometry" />
        </mxCell>
        <mxCell id="oXbtBevVn89mo1l6qwvO-40" style="edgeStyle=orthogonalEdgeStyle;rounded=0;orthogonalLoop=1;jettySize=auto;html=1;entryX=0.9;entryY=0.5;entryDx=0;entryDy=0;entryPerimeter=0;" edge="1" parent="1" source="oXbtBevVn89mo1l6qwvO-7" target="oXbtBevVn89mo1l6qwvO-1">
          <mxGeometry relative="1" as="geometry">
            <mxPoint x="490" y="-50" as="targetPoint" />
            <Array as="points">
              <mxPoint x="628" y="-50" />
            </Array>
          </mxGeometry>
        </mxCell>
        <mxCell id="oXbtBevVn89mo1l6qwvO-43" style="edgeStyle=orthogonalEdgeStyle;rounded=0;orthogonalLoop=1;jettySize=auto;html=1;entryX=0.25;entryY=1;entryDx=0;entryDy=0;" edge="1" parent="1" source="oXbtBevVn89mo1l6qwvO-4" target="oXbtBevVn89mo1l6qwvO-1">
          <mxGeometry relative="1" as="geometry">
            <Array as="points">
              <mxPoint x="435" y="200" />
              <mxPoint x="435" y="200" />
            </Array>
          </mxGeometry>
        </mxCell>
      </root>
    </mxGraphModel>
  </diagram>
</mxfile>
